<svg width="2360" height="1378" viewBox="0 0 2360 1378" fill="none" xmlns="http://www.w3.org/2000/svg">
<ellipse cx="1182" cy="1017.58" rx="1091" ry="944" fill="#001300"/>
<circle cx="183.001" cy="1163.58" r="301" fill="#E70012"/>
<circle cx="2177" cy="1163.58" r="301" fill="#E70012"/>
<ellipse cx="1180" cy="1284.76" rx="661.698" ry="519.165" fill="#FAFAFA"/>
<circle cx="396.141" cy="201.719" r="199.137" transform="rotate(-180 396.141 201.719)" fill="#001300"/>
<path fill-rule="evenodd" clip-rule="evenodd" d="M484.677 239.436C490.128 227.123 493.156 213.498 493.156 199.166C493.156 144.176 448.578 99.5971 393.588 99.5971C338.597 99.5971 294.019 144.176 294.019 199.166C294.019 254.156 338.597 298.735 393.588 298.735C396.776 298.735 399.93 298.585 403.042 298.292C429.116 277.562 456.359 257.916 484.677 239.436Z" fill="#FAFAFA"/>
<circle cx="199.137" cy="199.137" r="199.137" transform="matrix(1 -8.74228e-08 -8.74228e-08 -1 1764.72 398.857)" fill="#001300"/>
<path fill-rule="evenodd" clip-rule="evenodd" d="M1875.32 237.436C1869.87 225.123 1866.84 211.498 1866.84 197.166C1866.84 142.176 1911.42 97.5974 1966.41 97.5974C2021.4 97.5974 2065.98 142.176 2065.98 197.166C2065.98 252.156 2021.4 296.735 1966.41 296.735C1963.22 296.735 1960.07 296.585 1956.96 296.292C1930.88 275.562 1903.64 255.916 1875.32 237.436Z" fill="#FAFAFA"/>
</svg>
