<svg width="2360" height="1341" viewBox="0 0 2360 1341" fill="none" xmlns="http://www.w3.org/2000/svg">
<ellipse cx="1182" cy="1017" rx="1091" ry="944" fill="#001300"/>
<circle cx="183" cy="1163" r="301" fill="#E70012"/>
<circle cx="2177" cy="1163" r="301" fill="#E70012"/>
<circle cx="396.139" cy="201.138" r="199.137" transform="rotate(-180 396.139 201.138)" fill="#001300"/>
<path fill-rule="evenodd" clip-rule="evenodd" d="M484.675 238.854C490.127 226.541 493.155 212.916 493.155 198.584C493.155 143.594 448.577 99.0155 393.586 99.0155C338.596 99.0155 294.018 143.594 294.018 198.584C294.018 253.575 338.596 298.153 393.586 298.153C396.775 298.153 399.929 298.003 403.041 297.71C429.115 276.98 456.358 257.334 484.675 238.854Z" fill="#FAFAFA"/>
<circle cx="199.137" cy="199.137" r="199.137" transform="matrix(1 -8.74228e-08 -8.74228e-08 -1 1764.72 398.275)" fill="#001300"/>
<path fill-rule="evenodd" clip-rule="evenodd" d="M1875.32 236.854C1869.87 224.541 1866.84 210.916 1866.84 196.584C1866.84 141.594 1911.42 97.0155 1966.41 97.0155C2021.4 97.0155 2065.98 141.594 2065.98 196.584C2065.98 251.575 2021.4 296.153 1966.41 296.153C1963.22 296.153 1960.07 296.003 1956.96 295.71C1930.88 274.98 1903.64 255.334 1875.32 236.854Z" fill="#FAFAFA"/>
</svg>
