<svg width="92" height="92" viewBox="0 0 92 92" fill="none" xmlns="http://www.w3.org/2000/svg">
<mask id="mask0_93_273" style="mask-type:luminance" maskUnits="userSpaceOnUse" x="3" y="5" width="86" height="82">
<path d="M35.0437 82.7438C28.7037 80.8504 22.9617 77.3481 18.3764 72.5778C19.8516 70.8281 20.7712 68.678 21.0175 66.4027C21.2638 64.1274 20.8257 61.8304 19.7591 59.8055C18.6926 57.7807 17.0461 56.1201 15.0304 55.0363C13.0147 53.9524 10.7215 53.4947 8.4442 53.7216C7.92422 51.1805 7.6635 48.5931 7.66603 45.9993C7.66603 41.9935 8.27937 38.1295 9.4217 34.4993H9.5827C11.5372 34.5 13.4597 34.0024 15.1685 33.0537C16.8773 32.105 18.3162 30.7363 19.3491 29.0771C20.3821 27.4178 20.9751 25.5226 21.0722 23.5705C21.1693 21.6184 20.7672 19.6737 19.904 17.9202C24.3992 13.7377 29.8333 10.6962 35.749 9.05176C36.7119 10.9424 38.1791 12.5297 39.9881 13.6382C41.7972 14.7468 43.8777 15.3332 45.9994 15.3327C48.121 15.3332 50.2015 14.7468 52.0106 13.6382C53.8197 12.5297 55.2868 10.9424 56.2497 9.05176C62.1654 10.6962 67.5996 13.7377 72.0948 17.9202C71.2252 19.686 70.8235 21.6455 70.928 23.6111C71.0325 25.5766 71.6397 27.4824 72.6916 29.1461C73.7435 30.8098 75.2048 32.1757 76.9356 33.113C78.6665 34.0503 80.6089 34.5276 82.577 34.4993C83.7439 38.221 84.3359 42.099 84.3327 45.9993C84.3327 48.6443 84.0644 51.228 83.5545 53.7235C81.2772 53.4966 78.984 53.9544 76.9683 55.0382C74.9526 56.122 73.3062 57.7826 72.2396 59.8074C71.173 61.8323 70.7349 64.1294 70.9812 66.4046C71.2276 68.6799 72.1472 70.83 73.6224 72.5797C69.0369 77.3493 63.2949 80.8509 56.955 82.7438C56.2105 80.4232 54.7484 78.3991 52.7794 76.963C50.8105 75.5269 48.4364 74.7531 45.9994 74.7531C43.5623 74.7531 41.1882 75.5269 39.2193 76.963C37.2503 78.3991 35.7882 80.4232 35.0437 82.7438Z" fill="white" stroke="white" stroke-width="7.66667" stroke-linejoin="round"/>
<path d="M45.9997 59.4168C47.7616 59.4168 49.5062 59.0698 51.134 58.3955C52.7618 57.7213 54.2408 56.733 55.4867 55.4872C56.7325 54.2413 57.7208 52.7623 58.3951 51.1345C59.0693 49.5067 59.4163 47.7621 59.4163 46.0002C59.4163 44.2383 59.0693 42.4936 58.3951 40.8658C57.7208 39.238 56.7325 37.759 55.4867 36.5131C54.2408 35.2673 52.7618 34.279 51.134 33.6048C49.5062 32.9305 47.7616 32.5835 45.9997 32.5835C42.4414 32.5835 39.0288 33.997 36.5127 36.5131C33.9965 39.0293 32.583 42.4418 32.583 46.0002C32.583 49.5585 33.9965 52.9711 36.5127 55.4872C39.0288 58.0033 42.4414 59.4168 45.9997 59.4168Z" fill="black" stroke="black" stroke-width="7.66667" stroke-linejoin="round"/>
</mask>
<g mask="url(#mask0_93_273)">
<path d="M0 0H92V92H0V0Z" fill="#FAFAFA"/>
</g>
</svg>
