<svg width="71" height="71" viewBox="0 0 71 71" fill="none" xmlns="http://www.w3.org/2000/svg">
<circle cx="35.75" cy="35.25" r="35.25" fill="#C8DFEF"/>
<mask id="mask0_1157_4644" style="mask-type:luminance" maskUnits="userSpaceOnUse" x="14" y="14" width="44" height="42">
<path d="M30.5219 53.3719C27.3518 52.4252 24.4808 50.6741 22.1882 48.2889C22.9258 47.414 23.3856 46.339 23.5088 45.2014C23.6319 44.0637 23.4128 42.9152 22.8796 41.9028C22.3463 40.8903 21.5231 40.06 20.5152 39.5181C19.5074 38.9762 18.3608 38.7473 17.2221 38.8608C16.9621 37.5902 16.8317 36.2966 16.833 34.9997C16.833 32.9968 17.1397 31.0648 17.7109 29.2497H17.7914C18.7686 29.25 19.7298 29.0012 20.5843 28.5268C21.4387 28.0525 22.1581 27.3682 22.6746 26.5385C23.1911 25.7089 23.4876 24.7613 23.5361 23.7853C23.5846 22.8092 23.3836 21.8369 22.952 20.9601C25.1996 18.8689 27.9167 17.3481 30.8745 16.5259C31.356 17.4712 32.0895 18.2649 32.9941 18.8191C33.8986 19.3734 34.9388 19.6666 35.9997 19.6663C37.0605 19.6666 38.1008 19.3734 39.0053 18.8191C39.9098 18.2649 40.6434 17.4712 41.1248 16.5259C44.0827 17.3481 46.7998 18.8689 49.0474 20.9601C48.6126 21.843 48.4117 22.8227 48.464 23.8055C48.5162 24.7883 48.8199 25.7412 49.3458 26.5731C49.8717 27.4049 50.6024 28.0878 51.4678 28.5565C52.3332 29.0251 53.3045 29.2638 54.2885 29.2497C54.8719 31.1105 55.168 33.0495 55.1664 34.9997C55.1664 36.3222 55.0322 37.614 54.7773 38.8618C53.6386 38.7483 52.492 38.9772 51.4842 39.5191C50.4763 40.061 49.6531 40.8913 49.1198 41.9037C48.5865 42.9162 48.3674 44.0647 48.4906 45.2023C48.6138 46.34 49.0736 47.415 49.8112 48.2898C47.5184 50.6747 44.6474 52.4255 41.4775 53.3719C41.1053 52.2116 40.3742 51.1995 39.3897 50.4815C38.4052 49.7634 37.2182 49.3765 35.9997 49.3765C34.7812 49.3765 33.5941 49.7634 32.6096 50.4815C31.6252 51.1995 30.8941 52.2116 30.5219 53.3719Z" fill="white" stroke="white" stroke-width="3.83333" stroke-linejoin="round"/>
<path d="M35.9993 41.7087C36.8803 41.7087 37.7526 41.5351 38.5665 41.198C39.3804 40.8609 40.1199 40.3668 40.7429 39.7438C41.3658 39.1209 41.8599 38.3814 42.197 37.5675C42.5342 36.7536 42.7077 35.8813 42.7077 35.0003C42.7077 34.1194 42.5342 33.2471 42.197 32.4332C41.8599 31.6193 41.3658 30.8797 40.7429 30.2568C40.1199 29.6339 39.3804 29.1398 38.5665 28.8026C37.7526 28.4655 36.8803 28.292 35.9993 28.292C34.2202 28.292 32.5139 28.9988 31.2558 30.2568C29.9978 31.5149 29.291 33.2212 29.291 35.0003C29.291 36.7795 29.9978 38.4858 31.2558 39.7438C32.5139 41.0019 34.2202 41.7087 35.9993 41.7087Z" fill="black" stroke="black" stroke-width="3.83333" stroke-linejoin="round"/>
</mask>
<g mask="url(#mask0_1157_4644)">
<path d="M13 12H59V58H13V12Z" fill="#333333"/>
</g>
</svg>
