<svg width="2360" height="116" viewBox="0 0 2360 116" fill="none" xmlns="http://www.w3.org/2000/svg">
<path d="M-80 58C-34.1667 -8.66667 11.6667 -8.66667 57.5 58C103.333 124.667 149.167 124.667 195 58C240.833 -8.66667 286.667 -8.66667 332.5 58C378.333 124.667 424.167 124.667 470 58C515.833 -8.66667 561.667 -8.66667 607.5 58C653.333 124.667 699.167 124.667 745 58C790.833 -8.66667 836.667 -8.66667 882.5 58C928.333 124.667 974.167 124.667 1020 58C1065.83 -8.66667 1111.67 -8.66667 1157.5 58C1203.33 124.667 1249.17 124.667 1295 58C1340.83 -8.66667 1386.67 -8.66667 1432.5 58C1478.33 124.667 1524.17 124.667 1570 58C1615.83 -8.66667 1661.67 -8.66667 1707.5 58C1753.33 124.667 1799.17 124.667 1845 58C1890.83 -8.66667 1936.67 -8.66667 1982.5 58C2028.33 124.667 2074.17 124.667 2120 58C2165.83 -8.66667 2211.67 -8.66667 2257.5 58C2303.33 124.667 2349.17 124.667 2395 58C2440.83 -8.66667 2486.67 -8.66667 2532.5 58C2578.33 124.667 2624.17 124.667 2670 58C2715.83 -8.66667 2761.67 -8.66667 2807.5 58C2853.33 124.667 2899.17 124.667 2945 58C2990.83 -8.66667 3036.67 -8.66667 3082.5 58C3128.33 124.667 3174.17 124.667 3220 58C3265.83 -8.66667 3311.67 -8.66667 3357.5 58C3403.33 124.667 3449.17 124.667 3495 58C3540.83 -8.66667 3586.67 -8.66667 3632.5 58C3678.33 124.667 3724.17 124.667 3770 58C3815.83 -8.66667 3861.67 -8.66667 3907.5 58C3953.33 124.667 3999.17 124.667 4045 58C4090.83 -8.66667 4136.67 -8.66667 4182.5 58C4228.33 124.667 4274.17 124.667 4320 58C4365.83 -8.66667 4411.67 -8.66667 4457.5 58C4503.33 124.667 4549.17 124.667 4595 58C4640.83 -8.66667 4686.67 -8.66667 4732.5 58C4778.33 124.667 4824.17 124.667 4870 58C4915.83 -8.66667 4961.67 -8.66667 5007.5 58C5053.33 124.667 5099.17 124.667 5145 58C5190.83 -8.66667 5236.67 -8.66667 5282.5 58C5328.33 124.667 5374.17 124.667 5420 58C5465.83 -8.66667 5511.67 -8.66667 5557.5 58C5603.33 124.667 5649.17 124.667 5695 58C5740.83 -8.66667 5786.67 -8.66667 5832.5 58C5878.33 124.667 5924.17 124.667 5970 58C6015.83 -8.66667 6061.67 -8.66667 6107.5 58C6153.33 124.667 6199.17 124.667 6245 58C6290.83 -8.66667 6336.67 -8.66667 6382.5 58C6428.33 124.667 6474.17 124.667 6520 58C6565.83 -8.66667 6611.67 -8.66667 6657.5 58C6703.33 124.667 6749.17 124.667 6795 58" stroke="#E70012" stroke-width="16"/>
</svg>
