<svg width="2360" height="102" viewBox="0 0 2360 102" fill="none" xmlns="http://www.w3.org/2000/svg">
<path d="M-80 36.3049C-34.1667 -30.3617 11.6667 -30.3617 57.5 36.3049C103.333 102.972 149.167 102.972 195 36.3049C240.833 -30.3617 286.667 -30.3617 332.5 36.3049C378.333 102.972 424.167 102.972 470 36.3049C515.833 -30.3617 561.667 -30.3617 607.5 36.3049C653.333 102.972 699.167 102.972 745 36.3049C790.833 -30.3617 836.667 -30.3617 882.5 36.3049C928.333 102.972 974.167 102.972 1020 36.3049C1065.83 -30.3617 1111.67 -30.3617 1157.5 36.3049C1203.33 102.972 1249.17 102.972 1295 36.3049C1340.83 -30.3617 1386.67 -30.3617 1432.5 36.3049C1478.33 102.972 1524.17 102.972 1570 36.3049C1615.83 -30.3617 1661.67 -30.3617 1707.5 36.3049C1753.33 102.972 1799.17 102.972 1845 36.3049C1890.83 -30.3617 1936.67 -30.3617 1982.5 36.3049C2028.33 102.972 2074.17 102.972 2120 36.3049C2165.83 -30.3617 2211.67 -30.3617 2257.5 36.3049C2303.33 102.972 2349.17 102.972 2395 36.3049C2440.83 -30.3617 2486.67 -30.3617 2532.5 36.3049C2578.33 102.972 2624.17 102.972 2670 36.3049C2715.83 -30.3617 2761.67 -30.3617 2807.5 36.3049C2853.33 102.972 2899.17 102.972 2945 36.3049C2990.83 -30.3617 3036.67 -30.3617 3082.5 36.3049C3128.33 102.972 3174.17 102.972 3220 36.3049C3265.83 -30.3617 3311.67 -30.3617 3357.5 36.3049C3403.33 102.972 3449.17 102.972 3495 36.3049C3540.83 -30.3617 3586.67 -30.3617 3632.5 36.3049C3678.33 102.972 3724.17 102.972 3770 36.3049C3815.83 -30.3617 3861.67 -30.3617 3907.5 36.3049C3953.33 102.972 3999.17 102.972 4045 36.3049C4090.83 -30.3617 4136.67 -30.3617 4182.5 36.3049C4228.33 102.972 4274.17 102.972 4320 36.3049C4365.83 -30.3617 4411.67 -30.3617 4457.5 36.3049C4503.33 102.972 4549.17 102.972 4595 36.3049C4640.83 -30.3617 4686.67 -30.3617 4732.5 36.3049C4778.33 102.972 4824.17 102.972 4870 36.3049C4915.83 -30.3617 4961.67 -30.3617 5007.5 36.3049C5053.33 102.972 5099.17 102.972 5145 36.3049C5190.83 -30.3617 5236.67 -30.3617 5282.5 36.3049C5328.33 102.972 5374.17 102.972 5420 36.3049C5465.83 -30.3617 5511.67 -30.3617 5557.5 36.3049C5603.33 102.972 5649.17 102.972 5695 36.3049C5740.83 -30.3617 5786.67 -30.3617 5832.5 36.3049C5878.33 102.972 5924.17 102.972 5970 36.3049C6015.83 -30.3617 6061.67 -30.3617 6107.5 36.3049C6153.33 102.972 6199.17 102.972 6245 36.3049C6290.83 -30.3617 6336.67 -30.3617 6382.5 36.3049C6428.33 102.972 6474.17 102.972 6520 36.3049C6565.83 -30.3617 6611.67 -30.3617 6657.5 36.3049C6703.33 102.972 6749.17 102.972 6795 36.3049" stroke="#E70012" stroke-width="30"/>
</svg>
